<svg width="499" height="362" viewBox="0 0 499 362" fill="none" xmlns="http://www.w3.org/2000/svg">
<path d="M320.31 334.944L284.585 346.589L320.31 334.944ZM337.74 152.79L353.262 147.816L367.864 133.403L379.152 118.771L386.933 104.279L391.117 90.2597L391.708 77.0196L388.798 64.8296L382.551 53.9205L373.197 44.4817L361.012 36.6631L346.317 30.5746L329.455 26.288L310.79 23.8414L290.703 23.2431L269.576 24.4699L247.796 27.4769L225.749 32.1922L203.818 38.5249L182.379 46.3609L161.804 55.5695L142.457 65.9974L124.688 77.4746L108.748 70.2158L96.2782 70.717L81.8589 81.7881L75.6591 86.5483L64.0771 97.3958L57.806 103.27L46.9733 114.192L40.9362 121.306L30.8786 133.16L18.5735 152.522L10.431 171.928L6.48062 186.043L4.92088 191.616L1.00001 211.945L2.06811 231.534L8.33083 249.927L19.8852 266.654L36.7017 281.249L58.5997 293.257L85.2335 302.27L116.083 307.938L150.454 309.996L187.497 308.289L226.226 302.785L265.566 293.584L304.399 280.922L341.612 265.158L376.162 246.763L407.117 226.289L433.699 204.342L455.306 181.553M254.447 6.65991L226.17 12.76L224.385 13.2761L198.064 20.8929L170.581 30.9229L144.165 42.6926M45.6739 145.85L43.1007 161.062L44.4143 175.574L49.722 189.051L59.047 201.158L72.3141 211.567L89.342 219.975L109.831 226.115L133.369 229.77L159.428 230.781L187.382 229.069L216.523 224.635L246.087 217.568L275.286 208.041L303.337 196.31L329.499 182.698L353.101 167.585M137.577 203.146L134.635 196.799L129.873 191.943L118.555 180.404L116.196 179.379L96.0141 170.608L70.0847 168.891L44.4143 175.574L22.6564 189.729M414.707 283.935L419.392 270.198L416.8 250.06L407.117 226.289L391.665 202.347L372.72 181.785L353.101 167.585M439.464 53.6435L413.504 55.0625L388.798 64.8296L368.847 81.533L356.408 102.758L353.088 125.495M439.142 263.232L459.019 241.627L466.659 225.247L482.522 202.032L492.856 179.131L497.625 157.088L497.278 135.112L487.149 114.176L468.484 97.2544L443.857 86.815L416.776 84.3794L391.117 90.2597L373.275 101.731L370.485 103.525L359.349 119.727L357.647 122.203M129.016 196.829L107.653 189.322L83.1975 190.779L59.047 201.158L38.6535 219.081L24.9571 242.011M177.226 152.162L170.2 131.905L157.83 110.694L141.88 91.6241L124.688 77.4746M459.019 241.627L473.955 219.702L482.522 202.032L481.751 180.663L471.532 158.543L453.183 138.853L429.309 124.475L403.386 117.478L379.152 118.771L359.975 128.004M380.655 22.9121L361.012 36.6631L345.456 56.9121L336.22 80.7689L334.58 104.816L342.812 110.646L349.038 117.581L353.088 125.495L354.475 132.457L354.313 132.811M349.931 140.816L350.06 140.581L351 139.255L351.779 138.537L353.282 136.605L354.188 135.441L354.757 134.71L359.975 128.004L366.751 115.582L370.485 103.525L371.163 92.0964L368.847 81.533L363.662 72.039L355.789 63.786L345.456 56.9121L332.924 51.5214L318.487 47.6867L302.458 45.4502L285.163 44.8243L266.94 45.7973L248.13 48.3326L229.076 52.3704L210.118 57.8304L191.592 64.6137L173.832 72.6013L157.157 81.6564L141.88 91.6241L128.296 102.333L116.684 113.595L107.3 125.205L100.369 136.946L96.086 148.588L94.6002 159.889L96.0141 170.608L100.371 180.499L107.653 189.322L117.768 196.852L134.219 202.208L137.663 203.329L137.957 203.425M455.306 181.553L437.598 160.417L414.863 143.955L390.442 134.538L367.864 133.403L355.019 138.582L352.397 139.639L350.247 140.506M145.771 207.24L127.372 211.892L109.831 226.115L95.6882 248.106L87.0573 274.784L85.2334 302.27L90.4435 326.557L101.826 344.217L117.639 352.938M275.727 136.344L257.146 140.117L238.688 145.374L220.685 152.019L203.46 159.934M148.85 198.616L150.047 179.905L142.741 159.542L127.807 140.386L107.3 125.205L84.1544 116.2L61.7031 114.627L43.1103 120.607L30.8785 133.16M309.673 1L282.437 2.70883L254.447 6.6599L250.028 12.9586L247.796 27.4769L248.13 48.3326L251.025 72.5718L256.067 96.6394L262.502 117.016L269.381 130.837L275.727 136.344L294.099 134.132L311.927 133.533M470.112 58.7989L453.061 45.2825L430.662 39.5635L405.997 42.5602L382.551 53.9205L363.662 72.039L351.976 94.3136L349.038 117.581L352.494 129.566L353.734 133.867M139.05 203.939L138.985 203.76L137.515 199.735L133.237 188.022L131.257 185.924L117.153 170.976L94.6002 159.889L68.6933 156.405L43.1007 161.062L21.4571 173.181L6.77751 190.995L1 211.945M380.655 22.9121L394.933 31.7905L405.997 42.5602L413.504 55.0625L417.169 69.0886L416.776 84.3794L412.191 100.628L403.386 117.478L390.442 134.538L373.569 151.386L353.101 167.585L335.64 161.648L315.394 174.536L293.007 186.136L269.041 196.137L244.11 204.272L218.863 210.33L193.953 214.163L170.016 215.695L147.646 214.918L127.372 211.892L109.646 206.737L94.831 199.627L72.3141 211.567L53.4462 231.114L40.978 255.514L36.7017 281.249L41.1483 304.632L63.3953 317.123L75.3635 334.82L92.6774 344.039L104.406 348.221L117.639 352.938L146.4 358.675L178.313 361L212.593 359.764L248.343 354.932L284.585 346.589L286.384 346.043L318.536 335.562L320.31 334.944L354.516 320.322L386.263 303.151L414.707 283.935L439.142 263.232L445.484 248.178L466.659 225.247L465.437 204.256L455.306 181.553L471.532 158.543L482.156 135.905L487.149 114.176L486.616 93.8284L480.819 75.262L462.994 60.7391L453.061 45.2825L438.842 32.0334L417.893 27.4738L401.56 17.5415L380.655 22.9122L363.539 16.0383L343.991 11.2395L322.434 8.54872L299.299 7.96326L275.02 9.45295L250.028 12.9587L224.754 18.3981L199.622 25.6666L175.048 34.6382L151.444 45.1682L129.213 57.0895L108.748 70.2158L90.4339 84.3383L74.636 99.2261L61.7031 114.627L51.954 130.267L45.6739 145.85L24.6268 155.902L21.4572 173.182L22.6564 189.729L7.87586 209.317L13.9091 226.468L24.9571 242.011L19.8853 266.655L24.0535 289.513L41.1483 304.632L53.5446 322.423L75.3635 334.82L101.826 344.217L132.412 350.258L166.435 352.669L203.05 351.288L241.287 346.072L280.088 337.114L318.351 324.64L354.987 309.006L388.972 290.676L419.392 270.198L445.484 248.178L443.651 227.602L433.699 204.342L416.96 181.774L395.877 163.229L373.569 151.386L353.262 147.816L335.64 161.648L322.709 164.551L310.999 171.992L305.491 175.491L286.491 185.327L266.174 193.8L245.048 200.694L223.646 205.833L202.51 209.097L182.164 210.416L163.103 209.783L146.212 207.305L145.87 207.215L144.581 206.538L143.404 206.276L139.612 205.476L138.513 205.162L130.555 202.883L109.646 206.737L89.342 219.976L72.5647 240.897L61.7905 266.563L58.5997 293.257L63.3952 317.123L90.4435 326.557L121.765 332.572L156.655 334.887L194.247 333.338L233.541 327.882L273.442 318.619L312.808 305.784L350.512 289.745L385.491 270.982L416.8 250.06L443.651 227.602L465.437 204.256L481.751 180.663L492.374 157.43L497.278 135.112L496.59 114.196L490.568 95.0906L486.429 86.6724L480.819 75.2619L470.112 58.7989L454.931 44.6861L438.842 32.0334L420.795 21.1647L407.585 15.9939L399.408 12.7928L384.275 9.16051L375.193 6.98061L359.985 4.55971L335.681 1.60283L309.673 1.00001L299.299 7.96323L290.703 23.2431L285.163 44.8243L283.53 69.6432L286.053 94.0771L292.331 114.584L301.399 128.314L311.927 133.533L328.873 134.578L344.161 137.138L344.609 137.271L350.335 139.012L350.797 139.233M22.6564 189.729L28.3709 205.158L38.6535 219.081L53.4462 231.114L72.5647 240.897L95.6883 248.106L122.355 252.474L151.97 253.806L183.809 251.995L217.05 247.032L250.8 239.013L284.131 228.14L316.126 214.711L345.916 199.11L372.72 181.785L395.877 163.229L414.863 143.955L429.309 124.475L438.997 105.278L443.857 86.815L443.954 69.4889L439.464 53.6435M351.411 138.112L350.444 136.992L340.666 125.671L334.58 104.816L324.549 100.186L312.947 96.827L300.026 94.784L286.053 94.0771L271.305 94.7037L256.067 96.6394L240.624 99.8392L225.262 104.238L210.266 109.752L195.913 116.282L182.472 123.71L170.2 131.905L159.342 140.717L150.121 149.988L142.741 159.542L137.376 169.194L144.762 189.616L143.426 205.996M163.103 209.783L147.646 214.918L133.369 229.77L122.355 252.474L116.282 279.864L116.083 307.938L121.765 332.571L132.412 350.257L146.4 358.675M496.59 114.196L490.157 101.06L486.616 93.8284L468.243 78.1648L443.954 69.4889L417.169 69.0886L391.708 77.0196L371.163 92.0964L359.178 110.794L358.331 112.115L356.463 123.926L355.811 128.042M133.944 200.464L130.988 197.522L122.518 189.091L100.371 180.499L74.92 180.444L49.722 189.051L28.3709 205.158L13.9091 226.468L8.33082 249.927L12.2909 272.232M399.408 12.7928L382.103 9.88092L359.985 4.55969L343.991 11.2395L329.455 26.288L318.487 47.6867L312.708 72.3918L312.947 96.827L319.104 117.498L330.205 131.571L344.161 137.138L344.609 137.271M205.334 151.745L202.735 136.529L195.913 116.282L185.789 93.8772L173.832 72.6013L161.805 55.5695L151.444 45.1681L144.165 42.6926L119.254 56.0239L101.923 67.1072L96.2782 70.717M159.529 189.851L166.47 178.14L166.466 160.999L159.342 140.717L145.99 120.166L128.296 102.333L108.838 89.8098L90.4339 84.3382L75.6591 86.5483M182.164 210.416L170.016 215.695L159.428 230.781L151.97 253.806L148.807 281.567L150.454 309.996L156.655 334.887L166.435 352.669L178.313 361M124.688 77.4746L108.838 89.8098L95.2268 102.795L84.1544 116.2L75.8918 129.781L70.6746 143.274L68.6933 156.405L70.0847 168.891L74.9201 180.444L83.1975 190.779L94.8309 199.627L117.768 196.852L130.555 202.883M335.681 1.60282L322.434 8.54869L310.79 23.8414L302.458 45.4502L298.685 70.3019L300.026 94.784L306.238 115.37L316.352 129.216L328.873 134.578M202.51 209.097L193.953 214.163L187.382 229.069L183.809 251.995L183.834 279.761L187.497 308.289L194.247 333.338L203.05 351.288L212.593 359.764M205.334 151.745L191.045 159.743L178.005 168.594L172.587 179.015M223.646 205.833L218.863 210.33L216.523 224.635L217.05 247.032L220.441 274.424L226.226 302.785L233.541 327.882L241.287 346.072L248.342 354.932M245.048 200.694L244.11 204.272L246.087 217.568L250.8 239.013L257.623 265.656L265.566 293.584L273.442 318.619L280.088 337.114L284.585 346.589M282.437 2.70883L275.02 9.45291L269.576 24.4699L266.94 45.7973L267.542 70.4099L271.305 94.7037L277.658 115.14L285.642 128.863L294.099 134.132M187.326 168.985L191.045 159.743L189.396 143.956L182.472 123.71L171.184 101.878L157.157 81.6564L142.457 65.9974L129.213 57.0895L119.254 56.0239M386.263 303.151L388.972 290.676L385.491 270.982L376.162 246.763L362.284 221.555L345.916 199.11L329.499 182.698L315.394 174.536L305.491 175.491M134.635 196.799L133.237 188.022L134.173 178.754L118.287 161.02L96.0861 148.588L70.6747 143.274L45.6739 145.85M226.17 12.76L224.754 18.3981L225.749 32.1922L229.076 52.3704L234.287 76.0794L240.624 99.8392L247.149 120.165L252.92 134.19L257.146 140.117M220.685 152.019L220.601 144.741L216.987 130.012L210.266 109.752L201.369 86.8298L191.592 64.6137L182.379 46.3609L175.048 34.6381L170.581 30.9229M354.516 320.322L354.987 309.006L350.512 289.745L341.612 265.158L329.55 238.836L316.126 214.711L303.337 196.31L293.007 186.136L286.491 185.326M177.226 152.162L166.466 160.999L157.34 170.304L150.047 179.905L144.762 189.616L141.626 199.241L141.116 204.91M24.9571 242.011L40.978 255.514L61.7905 266.563L87.0573 274.784L116.282 279.864L148.807 281.567L183.834 279.761L220.441 274.424L257.623 265.656L294.338 253.682L329.55 238.836L362.284 221.555L391.665 202.347L416.96 181.774L437.598 160.417L453.183 138.853L463.495 117.632L468.484 97.2544L468.243 78.1648L462.994 60.7391L439.464 53.6435L430.662 39.5634L417.893 27.4737L394.933 31.7905L373.197 44.4817L355.79 63.7859L345.183 86.9416L342.812 110.646L348.881 131.596L352.637 135.872M420.795 21.1647L401.56 17.5414L382.103 9.88092L363.539 16.0382L346.317 30.5746L332.924 51.5214L325.311 75.8956L324.549 100.186L330.663 120.947L340.666 125.671L348.881 131.596L352.649 135.851M141.093 204.899L141.626 199.241L134.173 178.754L137.376 169.194L121.88 150.753L100.369 136.946L75.8918 129.781L51.954 130.267L31.9396 138.26L18.5736 152.522M198.064 20.8929L199.622 25.6666L203.818 38.5249L210.118 57.8304L217.634 80.8614L225.262 104.238L231.883 124.524L236.56 138.854L238.688 145.374M320.31 334.944L318.351 324.64L312.808 305.784L304.399 280.922L294.338 253.682L284.131 228.14L275.286 208.041L269.041 196.137L266.174 193.8M350.335 139.012L347.85 137.826L342.675 135.355L330.205 131.571L316.352 129.216L301.399 128.314L285.642 128.863L269.381 130.837L252.92 134.19L236.56 138.854L220.601 144.741L205.334 151.745L203.46 159.934L187.326 168.985L172.587 179.015L159.529 189.851L148.702 200.933L148.42 201.303L144.824 206.088L144.581 206.538M492.856 179.131L492.374 157.43L482.156 135.905L463.495 117.632L438.997 105.278L412.191 100.628L386.933 104.279L366.751 115.582L357.198 128.814L356.616 129.621L354.495 132.558M322.709 164.551L329.213 159.462L337.74 152.79L349.931 140.816L350.247 140.506L351 139.255L351.411 138.112L352.637 135.872L352.649 135.851L353.734 133.867L354.313 132.811L354.455 132.357L355.811 128.042L357.647 122.203L358.331 112.115L356.408 102.758L351.976 94.3136L345.183 86.9417L336.22 80.7689L325.311 75.8956L312.708 72.3918L298.685 70.3019L283.53 69.6432L267.542 70.4099L251.025 72.5718L234.287 76.0794L217.634 80.8615L201.369 86.8298L185.789 93.8772L171.184 101.878L157.83 110.694L145.99 120.166L135.908 130.125L127.807 140.386L121.88 150.753L118.287 161.02L117.153 170.976L118.555 180.404L122.518 189.091L129.016 196.829L133.944 200.464L135.89 201.9L137.577 203.146L137.957 203.425L139.05 203.939L141.093 204.899L141.116 204.91L143.404 206.276L144.413 206.851L145.87 207.215L146.212 207.305M148.42 201.303L148.702 200.933L156.68 188.209L157.34 170.304L150.121 149.988L135.908 130.125L116.684 113.595L95.2268 102.795L74.636 99.2261L57.806 103.27L43.1103 120.607L31.9396 138.26L24.6267 155.902L10.431 171.928L6.77751 190.995L7.87582 209.317L2.0681 231.534L5.89064 253.272L12.2909 272.232L24.0535 289.513L36.7191 307.446L53.5445 322.423M342.675 135.355L330.663 120.947L319.104 117.498L306.238 115.37L292.331 114.584L277.658 115.14L262.502 117.016L247.149 120.165L231.883 124.524L216.987 130.012L202.735 136.529L189.396 143.956L177.226 152.162L178.005 168.594L166.47 178.14L156.68 188.209L148.85 198.616L146.131 203.663L144.824 206.088" fill="#F0F8FF"/>
<path d="M320.31 334.944L284.585 346.589M337.74 152.79L353.262 147.816L367.864 133.403L379.152 118.771L386.933 104.279L391.117 90.2597L391.708 77.0196L388.798 64.8296L382.551 53.9205L373.197 44.4817L361.012 36.6631L346.317 30.5746L329.455 26.288L310.79 23.8414L290.703 23.2431L269.576 24.4699L247.796 27.4769L225.749 32.1922L203.818 38.5249L182.379 46.3609L161.804 55.5695L142.457 65.9974L124.688 77.4746L108.748 70.2158L96.2782 70.717L81.8589 81.7881L75.6591 86.5483L64.0771 97.3958L57.806 103.27L46.9733 114.192L40.9362 121.306L30.8786 133.16L18.5735 152.522L10.431 171.928L6.48062 186.043L4.92088 191.616L1.00001 211.945L2.06811 231.534L8.33083 249.927L19.8852 266.654L36.7017 281.249L58.5997 293.257L85.2335 302.27L116.083 307.938L150.454 309.996L187.497 308.289L226.226 302.785L265.566 293.584L304.399 280.922L341.612 265.158L376.162 246.763L407.117 226.289L433.699 204.342L455.306 181.553M254.447 6.65991L226.17 12.76L224.385 13.2761L198.064 20.8929L170.581 30.9229L144.165 42.6926M45.6739 145.85L43.1007 161.062L44.4143 175.574L49.722 189.051L59.047 201.158L72.3141 211.567L89.342 219.975L109.831 226.115L133.369 229.77L159.428 230.781L187.382 229.069L216.523 224.635L246.087 217.568L275.286 208.041L303.337 196.31L329.499 182.698L353.101 167.585M137.577 203.146L134.635 196.799L129.873 191.943L118.555 180.404L116.196 179.379L96.0141 170.608L70.0847 168.891L44.4143 175.574L22.6564 189.729M414.707 283.935L419.392 270.198L416.8 250.06L407.117 226.289L391.665 202.347L372.72 181.785L353.101 167.585M439.464 53.6435L413.504 55.0625L388.798 64.8296L368.847 81.533L356.408 102.758L353.088 125.495M439.142 263.232L459.019 241.627L466.659 225.247L482.522 202.032L492.856 179.131L497.625 157.088L497.278 135.112L487.149 114.176L468.484 97.2544L443.857 86.815L416.776 84.3794L391.117 90.2597L373.275 101.731L370.485 103.525L359.349 119.727L357.647 122.203M129.016 196.829L107.653 189.322L83.1975 190.779L59.047 201.158L38.6535 219.081L24.9571 242.011M177.226 152.162L170.2 131.905L157.83 110.694L141.88 91.6241L124.688 77.4746M459.019 241.627L473.955 219.702L482.522 202.032L481.751 180.663L471.532 158.543L453.183 138.853L429.309 124.475L403.386 117.478L379.152 118.771L359.975 128.004M380.655 22.9121L361.012 36.6631L345.456 56.9121L336.22 80.7689L334.58 104.816L342.812 110.646L349.038 117.581L353.088 125.495L354.475 132.457L354.313 132.811M349.931 140.816L350.06 140.581L351 139.255L351.779 138.537L353.282 136.605L354.188 135.441L354.757 134.71L359.975 128.004L366.751 115.582L370.485 103.525L371.163 92.0964L368.847 81.533L363.662 72.039L355.789 63.786L345.456 56.9121L332.924 51.5214L318.487 47.6867L302.458 45.4502L285.163 44.8243L266.94 45.7973L248.13 48.3326L229.076 52.3704L210.118 57.8304L191.592 64.6137L173.832 72.6013L157.157 81.6564L141.88 91.6241L128.296 102.333L116.684 113.595L107.3 125.205L100.369 136.946L96.086 148.588L94.6002 159.889L96.0141 170.608L100.371 180.499L107.653 189.322L117.768 196.852L134.219 202.208L137.663 203.329L137.957 203.425M455.306 181.553L437.598 160.417L414.863 143.955L390.442 134.538L367.864 133.403L355.019 138.582L352.397 139.639L350.247 140.506M145.771 207.24L127.372 211.892L109.831 226.115L95.6882 248.106L87.0573 274.784L85.2334 302.27L90.4435 326.557L101.826 344.217L117.639 352.938M275.727 136.344L257.146 140.117L238.688 145.374L220.685 152.019L203.46 159.934M148.85 198.616L150.047 179.905L142.741 159.542L127.807 140.386L107.3 125.205L84.1544 116.2L61.7031 114.627L43.1103 120.607L30.8785 133.16M309.673 1L282.437 2.70883L254.447 6.6599L250.028 12.9586L247.796 27.4769L248.13 48.3326L251.025 72.5718L256.067 96.6394L262.502 117.016L269.381 130.837L275.727 136.344L294.099 134.132L311.927 133.533M470.112 58.7989L453.061 45.2825L430.662 39.5635L405.997 42.5602L382.551 53.9205L363.662 72.039L351.976 94.3136L349.038 117.581L352.494 129.566L353.734 133.867M139.05 203.939L138.985 203.76L137.515 199.735L133.237 188.022L131.257 185.924L117.153 170.976L94.6002 159.889L68.6933 156.405L43.1007 161.062L21.4571 173.181L6.77751 190.995L1 211.945M380.655 22.9121L394.933 31.7905L405.997 42.5602L413.504 55.0625L417.169 69.0886L416.776 84.3794L412.191 100.628L403.386 117.478L390.442 134.538L373.569 151.386L353.101 167.585L335.64 161.648L315.394 174.536L293.007 186.136L269.041 196.137L244.11 204.272L218.863 210.33L193.953 214.163L170.016 215.695L147.646 214.918L127.372 211.892L109.646 206.737L94.831 199.627L72.3141 211.567L53.4462 231.114L40.978 255.514L36.7017 281.249L41.1483 304.632L63.3953 317.123L75.3635 334.82L92.6774 344.039L104.406 348.221L117.639 352.938L146.4 358.675L178.313 361L212.593 359.764L248.343 354.932L284.585 346.589L286.384 346.043L318.536 335.562L320.31 334.944L354.516 320.322L386.263 303.151L414.707 283.935L439.142 263.232L445.484 248.178L466.659 225.247L465.437 204.256L455.306 181.553L471.532 158.543L482.156 135.905L487.149 114.176L486.616 93.8284L480.819 75.262L462.994 60.7391L453.061 45.2825L438.842 32.0334L417.893 27.4738L401.56 17.5415L380.655 22.9122L363.539 16.0383L343.991 11.2395L322.434 8.54872L299.299 7.96326L275.02 9.45295L250.028 12.9587L224.754 18.3981L199.622 25.6666L175.048 34.6382L151.444 45.1682L129.213 57.0895L108.748 70.2158L90.4339 84.3383L74.636 99.2261L61.7031 114.627L51.954 130.267L45.6739 145.85L24.6268 155.902L21.4572 173.182L22.6564 189.729L7.87586 209.317L13.9091 226.468L24.9571 242.011L19.8853 266.655L24.0535 289.513L41.1483 304.632L53.5446 322.423L75.3635 334.82L101.826 344.217L132.412 350.258L166.435 352.669L203.05 351.288L241.287 346.072L280.088 337.114L318.351 324.64L354.987 309.006L388.972 290.676L419.392 270.198L445.484 248.178L443.651 227.602L433.699 204.342L416.96 181.774L395.877 163.229L373.569 151.386L353.262 147.816L335.64 161.648L322.709 164.551L310.999 171.992L305.491 175.491L286.491 185.327L266.174 193.8L245.048 200.694L223.646 205.833L202.51 209.097L182.164 210.416L163.103 209.783L146.212 207.305L145.87 207.215L144.581 206.538L143.404 206.276L139.612 205.476L138.513 205.162L130.555 202.883L109.646 206.737L89.342 219.976L72.5647 240.897L61.7905 266.563L58.5997 293.257L63.3952 317.123L90.4435 326.557L121.765 332.572L156.655 334.887L194.247 333.338L233.541 327.882L273.442 318.619L312.808 305.784L350.512 289.745L385.491 270.982L416.8 250.06L443.651 227.602L465.437 204.256L481.751 180.663L492.374 157.43L497.278 135.112L496.59 114.196L490.568 95.0906L486.429 86.6724L480.819 75.2619L470.112 58.7989L454.931 44.6861L438.842 32.0334L420.795 21.1647L407.585 15.9939L399.408 12.7928L384.275 9.16051L375.193 6.98061L359.985 4.55971L335.681 1.60283L309.673 1.00001L299.299 7.96323L290.703 23.2431L285.163 44.8243L283.53 69.6432L286.053 94.0771L292.331 114.584L301.399 128.314L311.927 133.533L328.873 134.578L344.161 137.138L344.609 137.271L350.335 139.012L350.797 139.233M22.6564 189.729L28.3709 205.158L38.6535 219.081L53.4462 231.114L72.5647 240.897L95.6883 248.106L122.355 252.474L151.97 253.806L183.809 251.995L217.05 247.032L250.8 239.013L284.131 228.14L316.126 214.711L345.916 199.11L372.72 181.785L395.877 163.229L414.863 143.955L429.309 124.475L438.997 105.278L443.857 86.815L443.954 69.4889L439.464 53.6435M351.411 138.112L350.444 136.992L340.666 125.671L334.58 104.816L324.549 100.186L312.947 96.827L300.026 94.784L286.053 94.0771L271.305 94.7037L256.067 96.6394L240.624 99.8392L225.262 104.238L210.266 109.752L195.913 116.282L182.472 123.71L170.2 131.905L159.342 140.717L150.121 149.988L142.741 159.542L137.376 169.194L144.762 189.616L143.426 205.996M163.103 209.783L147.646 214.918L133.369 229.77L122.355 252.474L116.282 279.864L116.083 307.938L121.765 332.571L132.412 350.257L146.4 358.675M496.59 114.196L490.157 101.06L486.616 93.8284L468.243 78.1648L443.954 69.4889L417.169 69.0886L391.708 77.0196L371.163 92.0964L359.178 110.794L358.331 112.115L356.463 123.926L355.811 128.042M133.944 200.464L130.988 197.522L122.518 189.091L100.371 180.499L74.92 180.444L49.722 189.051L28.3709 205.158L13.9091 226.468L8.33082 249.927L12.2909 272.232M399.408 12.7928L382.103 9.88092L359.985 4.55969L343.991 11.2395L329.455 26.288L318.487 47.6867L312.708 72.3918L312.947 96.827L319.104 117.498L330.205 131.571L344.161 137.138L344.609 137.271M205.334 151.745L202.735 136.529L195.913 116.282L185.789 93.8772L173.832 72.6013L161.805 55.5695L151.444 45.1681L144.165 42.6926L119.254 56.0239L101.923 67.1072L96.2782 70.717M159.529 189.851L166.47 178.14L166.466 160.999L159.342 140.717L145.99 120.166L128.296 102.333L108.838 89.8098L90.4339 84.3382L75.6591 86.5483M182.164 210.416L170.016 215.695L159.428 230.781L151.97 253.806L148.807 281.567L150.454 309.996L156.655 334.887L166.435 352.669L178.313 361M124.688 77.4746L108.838 89.8098L95.2268 102.795L84.1544 116.2L75.8918 129.781L70.6746 143.274L68.6933 156.405L70.0847 168.891L74.9201 180.444L83.1975 190.779L94.8309 199.627L117.768 196.852L130.555 202.883M335.681 1.60282L322.434 8.54869L310.79 23.8414L302.458 45.4502L298.685 70.3019L300.026 94.784L306.238 115.37L316.352 129.216L328.873 134.578M202.51 209.097L193.953 214.163L187.382 229.069L183.809 251.995L183.834 279.761L187.497 308.289L194.247 333.338L203.05 351.288L212.593 359.764M205.334 151.745L191.045 159.743L178.005 168.594L172.587 179.015M223.646 205.833L218.863 210.33L216.523 224.635L217.05 247.032L220.441 274.424L226.226 302.785L233.541 327.882L241.287 346.072L248.342 354.932M245.048 200.694L244.11 204.272L246.087 217.568L250.8 239.013L257.623 265.656L265.566 293.584L273.442 318.619L280.088 337.114L284.585 346.589M282.437 2.70883L275.02 9.45291L269.576 24.4699L266.94 45.7973L267.542 70.4099L271.305 94.7037L277.658 115.14L285.642 128.863L294.099 134.132M187.326 168.985L191.045 159.743L189.396 143.956L182.472 123.71L171.184 101.878L157.157 81.6564L142.457 65.9974L129.213 57.0895L119.254 56.0239M386.263 303.151L388.972 290.676L385.491 270.982L376.162 246.763L362.284 221.555L345.916 199.11L329.499 182.698L315.394 174.536L305.491 175.491M134.635 196.799L133.237 188.022L134.173 178.754L118.287 161.02L96.0861 148.588L70.6747 143.274L45.6739 145.85M226.17 12.76L224.754 18.3981L225.749 32.1922L229.076 52.3704L234.287 76.0794L240.624 99.8392L247.149 120.165L252.92 134.19L257.146 140.117M220.685 152.019L220.601 144.741L216.987 130.012L210.266 109.752L201.369 86.8298L191.592 64.6137L182.379 46.3609L175.048 34.6381L170.581 30.9229M354.516 320.322L354.987 309.006L350.512 289.745L341.612 265.158L329.55 238.836L316.126 214.711L303.337 196.31L293.007 186.136L286.491 185.326M177.226 152.162L166.466 160.999L157.34 170.304L150.047 179.905L144.762 189.616L141.626 199.241L141.116 204.91M24.9571 242.011L40.978 255.514L61.7905 266.563L87.0573 274.784L116.282 279.864L148.807 281.567L183.834 279.761L220.441 274.424L257.623 265.656L294.338 253.682L329.55 238.836L362.284 221.555L391.665 202.347L416.96 181.774L437.598 160.417L453.183 138.853L463.495 117.632L468.484 97.2544L468.243 78.1648L462.994 60.7391L439.464 53.6435L430.662 39.5634L417.893 27.4737L394.933 31.7905L373.197 44.4817L355.79 63.7859L345.183 86.9416L342.812 110.646L348.881 131.596L352.637 135.872M420.795 21.1647L401.56 17.5414L382.103 9.88092L363.539 16.0382L346.317 30.5746L332.924 51.5214L325.311 75.8956L324.549 100.186L330.663 120.947L340.666 125.671L348.881 131.596L352.649 135.851M141.093 204.899L141.626 199.241L134.173 178.754L137.376 169.194L121.88 150.753L100.369 136.946L75.8918 129.781L51.954 130.267L31.9396 138.26L18.5736 152.522M198.064 20.8929L199.622 25.6666L203.818 38.5249L210.118 57.8304L217.634 80.8614L225.262 104.238L231.883 124.524L236.56 138.854L238.688 145.374M320.31 334.944L318.351 324.64L312.808 305.784L304.399 280.922L294.338 253.682L284.131 228.14L275.286 208.041L269.041 196.137L266.174 193.8M350.335 139.012L347.85 137.826L342.675 135.355L330.205 131.571L316.352 129.216L301.399 128.314L285.642 128.863L269.381 130.837L252.92 134.19L236.56 138.854L220.601 144.741L205.334 151.745L203.46 159.934L187.326 168.985L172.587 179.015L159.529 189.851L148.702 200.933L148.42 201.303L144.824 206.088L144.581 206.538M492.856 179.131L492.374 157.43L482.156 135.905L463.495 117.632L438.997 105.278L412.191 100.628L386.933 104.279L366.751 115.582L357.198 128.814L356.616 129.621L354.495 132.558M322.709 164.551L329.213 159.462L337.74 152.79L349.931 140.816L350.247 140.506L351 139.255L351.411 138.112L352.637 135.872L352.649 135.851L353.734 133.867L354.313 132.811L354.455 132.357L355.811 128.042L357.647 122.203L358.331 112.115L356.408 102.758L351.976 94.3136L345.183 86.9417L336.22 80.7689L325.311 75.8956L312.708 72.3918L298.685 70.3019L283.53 69.6432L267.542 70.4099L251.025 72.5718L234.287 76.0794L217.634 80.8615L201.369 86.8298L185.789 93.8772L171.184 101.878L157.83 110.694L145.99 120.166L135.908 130.125L127.807 140.386L121.88 150.753L118.287 161.02L117.153 170.976L118.555 180.404L122.518 189.091L129.016 196.829L133.944 200.464L135.89 201.9L137.577 203.146L137.957 203.425L139.05 203.939L141.093 204.899L141.116 204.91L143.404 206.276L144.413 206.851L145.87 207.215L146.212 207.305M148.42 201.303L148.702 200.933L156.68 188.209L157.34 170.304L150.121 149.988L135.908 130.125L116.684 113.595L95.2268 102.795L74.636 99.2261L57.806 103.27L43.1103 120.607L31.9396 138.26L24.6267 155.902L10.431 171.928L6.77751 190.995L7.87582 209.317L2.0681 231.534L5.89064 253.272L12.2909 272.232L24.0535 289.513L36.7191 307.446L53.5445 322.423M342.675 135.355L330.663 120.947L319.104 117.498L306.238 115.37L292.331 114.584L277.658 115.14L262.502 117.016L247.149 120.165L231.883 124.524L216.987 130.012L202.735 136.529L189.396 143.956L177.226 152.162L178.005 168.594L166.47 178.14L156.68 188.209L148.85 198.616L146.131 203.663L144.824 206.088" stroke="black" stroke-width="2" stroke-linecap="round" stroke-linejoin="round"/>
</svg>
